<svg version="1.1" id="Layer_1" xmlns="http://www.w3.org/2000/svg" xmlns:xlink="http://www.w3.org/1999/xlink" x="0px" y="0px"
	 width="100%" viewBox="0 0 105 105" enable-background="new 0 0 105 105" xml:space="preserve">
<path fill="#1A3644" opacity="1.000000" stroke="none" 
	d="
M67.000000,106.000000 
	C44.666668,106.000000 22.833334,106.000000 1.000000,106.000000 
	C1.000000,71.000000 1.000000,36.000000 1.000000,1.000000 
	C36.000000,1.000000 71.000000,1.000000 106.000000,1.000000 
	C106.000000,36.000000 106.000000,71.000000 106.000000,106.000000 
	C93.166664,106.000000 80.333336,106.000000 67.000000,106.000000 
M22.858126,54.404194 
	C23.095530,59.630947 23.332932,64.857697 24.314428,70.144135 
	C27.471048,66.807503 30.627666,63.470879 34.056492,59.846519 
	C36.757210,63.169662 39.593277,66.029755 41.670719,69.362709 
	C44.809532,74.398476 48.649193,75.333084 53.953552,72.693756 
	C48.889988,66.691208 43.969494,60.858261 38.873459,54.817215 
	C43.946697,48.534542 48.893852,42.408012 54.106037,35.953266 
	C48.564495,34.644066 44.669876,35.375973 41.581375,40.048935 
	C38.751896,44.329994 35.104675,48.070583 30.846035,53.225609 
	C30.846035,46.328171 30.846035,41.088066 30.846035,35.706390 
	C28.349852,35.706390 26.270428,35.706390 23.782272,35.706390 
	C23.782272,38.936180 23.814003,41.903854 23.773380,44.870537 
	C23.732435,47.860821 23.619640,50.850121 22.858126,54.404194 
M61.032776,45.789440 
	C61.367523,47.732300 61.322754,49.847466 62.111309,51.584290 
	C64.123146,56.015450 68.233414,57.181293 72.671227,58.022793 
	C74.335640,58.338398 76.226387,59.800781 77.063232,61.278664 
	C77.580452,62.192104 76.695297,65.043648 75.768875,65.434311 
	C71.551758,67.212646 72.851685,70.251625 73.133423,73.257843 
	C81.802681,72.464981 86.361107,66.453102 84.078194,59.010693 
	C82.365509,53.427219 77.958588,51.737816 72.657181,50.890652 
	C70.996407,50.625263 69.033836,48.742870 68.364853,47.123352 
	C67.978516,46.188080 69.668587,43.346760 70.836586,43.063370 
	C72.590004,42.637947 75.823280,43.090374 76.461601,44.250805 
	C78.534859,48.019810 81.245270,46.668686 84.035522,46.440945 
	C83.760239,40.125446 80.667587,36.586639 74.911057,35.718369 
	C68.177216,34.702690 63.577141,37.792248 61.032776,45.789440 
M14.314987,89.985008 
	C27.652559,89.985008 40.990131,89.985008 54.515297,89.985008 
	C54.515297,88.925430 54.515297,87.546402 54.515297,85.658691 
	C42.664272,85.658691 31.098688,85.658691 19.084541,85.658691 
	C19.084541,74.912361 19.084541,64.670265 19.084541,54.114418 
	C17.223026,54.198727 15.840728,54.261330 14.123606,54.339096 
	C14.123606,66.159874 14.123606,77.615715 14.314987,89.985008 
M79.394829,21.228039 
	C82.142273,21.228039 84.889717,21.228039 87.972839,21.228039 
	C87.972839,32.598381 87.972839,43.190895 87.972839,53.835739 
	C89.719925,53.835739 91.109764,53.835739 92.569016,53.835739 
	C92.569016,41.187542 92.569016,28.830856 92.569016,16.260345 
	C80.055862,16.260345 67.941483,16.256611 55.827171,16.285231 
	C55.565884,16.285847 55.305470,16.657738 54.750473,17.080538 
	C54.857460,18.273758 54.981716,19.659609 55.122345,21.228041 
	C63.153568,21.228041 70.787758,21.228041 79.394829,21.228039 
z"/>
<path fill="#F5F6F7" opacity="1.000000" stroke="none" 
	d="
M23.538326,53.839851 
	C23.619640,50.850121 23.732435,47.860821 23.773380,44.870537 
	C23.814003,41.903854 23.782272,38.936180 23.782272,35.706390 
	C26.270428,35.706390 28.349852,35.706390 30.846035,35.706390 
	C30.846035,41.088066 30.846035,46.328171 30.846035,53.225609 
	C35.104675,48.070583 38.751896,44.329994 41.581375,40.048935 
	C44.669876,35.375973 48.564495,34.644066 54.106037,35.953266 
	C48.893852,42.408012 43.946697,48.534542 38.873459,54.817215 
	C43.969494,60.858261 48.889988,66.691208 53.953552,72.693756 
	C48.649193,75.333084 44.809532,74.398476 41.670719,69.362709 
	C39.593277,66.029755 36.757210,63.169662 34.056492,59.846519 
	C30.627666,63.470879 27.471048,66.807503 24.017769,69.648880 
	C23.660183,64.049042 23.599255,58.944447 23.538326,53.839851 
z"/>
<path fill="#F5F6F7" opacity="1.000000" stroke="none" 
	d="
M61.075684,45.385643 
	C63.577141,37.792248 68.177216,34.702690 74.911057,35.718369 
	C80.667587,36.586639 83.760239,40.125446 84.035522,46.440945 
	C81.245270,46.668686 78.534859,48.019810 76.461601,44.250805 
	C75.823280,43.090374 72.590004,42.637947 70.836586,43.063370 
	C69.668587,43.346760 67.978516,46.188080 68.364853,47.123352 
	C69.033836,48.742870 70.996407,50.625263 72.657181,50.890652 
	C77.958588,51.737816 82.365509,53.427219 84.078194,59.010693 
	C86.361107,66.453102 81.802681,72.464981 73.133423,73.257843 
	C72.851685,70.251625 71.551758,67.212646 75.768875,65.434311 
	C76.695297,65.043648 77.580452,62.192104 77.063232,61.278664 
	C76.226387,59.800781 74.335640,58.338398 72.671227,58.022793 
	C68.233414,57.181293 64.123146,56.015450 62.111309,51.584290 
	C61.322754,49.847466 61.367523,47.732300 61.075684,45.385643 
z"/>
<path fill="#F1F3F4" opacity="1.000000" stroke="none" 
	d="
M14.219296,89.528282 
	C14.123606,77.615715 14.123606,66.159874 14.123606,54.339096 
	C15.840728,54.261330 17.223026,54.198727 19.084541,54.114418 
	C19.084541,64.670265 19.084541,74.912361 19.084541,85.658691 
	C31.098688,85.658691 42.664272,85.658691 54.515297,85.658691 
	C54.515297,87.546402 54.515297,88.925430 54.515297,89.985008 
	C40.990131,89.985008 27.652559,89.985008 14.219296,89.528282 
z"/>
<path fill="#F2F4F5" opacity="1.000000" stroke="none" 
	d="
M78.908386,21.228039 
	C70.787758,21.228041 63.153568,21.228041 55.122345,21.228041 
	C54.981716,19.659609 54.857460,18.273758 54.750473,17.080538 
	C55.305470,16.657738 55.565884,16.285847 55.827171,16.285231 
	C67.941483,16.256611 80.055862,16.260345 92.569016,16.260345 
	C92.569016,28.830856 92.569016,41.187542 92.569016,53.835739 
	C91.109764,53.835739 89.719925,53.835739 87.972839,53.835739 
	C87.972839,43.190895 87.972839,32.598381 87.972839,21.228039 
	C84.889717,21.228039 82.142273,21.228039 78.908386,21.228039 
z"/>
<path fill="#0D2A3A" opacity="1.000000" stroke="none" 
	d="
M23.198227,54.122025 
	C23.599255,58.944447 23.660183,64.049042 23.645721,69.619041 
	C23.332932,64.857697 23.095530,59.630947 23.198227,54.122025 
z"/>
</svg>